<svg width="448" height="512" xmlns="http://www.w3.org/2000/svg" xmlns:xlink="http://www.w3.org/1999/xlink" xml:space="preserve" overflow="hidden"><defs><clipPath id="clip0"><rect x="800" y="90" width="448" height="512"/></clipPath></defs><g clip-path="url(#clip0)" transform="translate(-800 -90)"><path d="M880 194C893.3 194 904 183.3 904 170 904 156.7 893.3 146 880 146 866.7 146 856 156.7 856 170 856 183.3 866.7 194 880 194ZM960 170C960 202.8 940.3 231 912 243.3L912 282C912 299.7 926.3 314 944 314L1104 314C1121.7 314 1136 299.7 1136 282L1136 243.3C1107.7 231 1088 202.8 1088 170 1088 125.8 1123.8 90 1168 90 1212.2 90 1248 125.8 1248 170 1248 202.8 1228.3 231 1200 243.3L1200 282C1200 335 1157 378 1104 378L1056 378 1056 448.7C1084.3 461 1104 489.2 1104 522 1104 566.2 1068.2 602 1024 602 979.8 602 944 566.2 944 522 944 489.2 963.7 461 992 448.7L992 378 944 378C891 378 848 335 848 282L848 243.3C819.7 231 800 202.8 800 170 800 125.8 835.8 90 880 90 924.2 90 960 125.8 960 170ZM1168 194C1181.3 194 1192 183.3 1192 170 1192 156.7 1181.3 146 1168 146 1154.7 146 1144 156.7 1144 170 1144 183.3 1154.7 194 1168 194ZM1048 522C1048 508.7 1037.3 498 1024 498 1010.7 498 1000 508.7 1000 522 1000 535.3 1010.7 546 1024 546 1037.3 546 1048 535.3 1048 522Z" fill="#E8710A"/></g></svg>