<svg width="448" height="512" xmlns="http://www.w3.org/2000/svg" xmlns:xlink="http://www.w3.org/1999/xlink" xml:space="preserve" overflow="hidden"><defs><clipPath id="clip0"><rect x="88" y="100" width="448" height="512"/></clipPath></defs><g clip-path="url(#clip0)" transform="translate(-88 -100)"><path d="M168 204C181.3 204 192 193.3 192 180 192 166.7 181.3 156 168 156 154.7 156 144 166.7 144 180 144 193.3 154.7 204 168 204ZM248 180C248 212.8 228.3 241 200 253.3L200 292C200 309.7 214.3 324 232 324L392 324C409.7 324 424 309.7 424 292L424 253.3C395.7 241 376 212.8 376 180 376 135.8 411.8 100 456 100 500.2 100 536 135.8 536 180 536 212.8 516.3 241 488 253.3L488 292C488 345 445 388 392 388L344 388 344 458.7C372.3 471 392 499.2 392 532 392 576.2 356.2 612 312 612 267.8 612 232 576.2 232 532 232 499.2 251.7 471 280 458.7L280 388 232 388C179 388 136 345 136 292L136 253.3C107.7 241 88 212.8 88 180 88 135.8 123.8 100 168 100 212.2 100 248 135.8 248 180ZM456 204C469.3 204 480 193.3 480 180 480 166.7 469.3 156 456 156 442.7 156 432 166.7 432 180 432 193.3 442.7 204 456 204ZM336 532C336 518.7 325.3 508 312 508 298.7 508 288 518.7 288 532 288 545.3 298.7 556 312 556 325.3 556 336 545.3 336 532Z" fill="#EBB211"/></g></svg>