<svg width="640" height="512" xmlns="http://www.w3.org/2000/svg" xmlns:xlink="http://www.w3.org/1999/xlink" xml:space="preserve" overflow="hidden"><defs><clipPath id="clip0"><rect x="655" y="34" width="640" height="512"/></clipPath></defs><g clip-path="url(#clip0)" transform="translate(-655 -34)"><path d="M719 130C719 94.7 747.7 66 783 66L1167 66C1202.3 66 1231 94.7 1231 130L1231 386 1167 386 1167 130 783 130 783 386 719 386 719 130ZM655 437.2C655 426.6 663.6 418 674.2 418L1275.8 418C1286.4 418 1295 426.6 1295 437.2 1295 479.6 1260.6 514 1218.2 514L731.8 514C689.4 514 655 479.6 655 437.2ZM936 243 905 274 936 305C945.4 314.4 945.4 329.6 936 338.9 926.6 348.2 911.4 348.3 902.1 338.9L854.1 290.9C844.7 281.5 844.7 266.3 854.1 257L902.1 209C911.5 199.6 926.7 199.6 936 209 945.3 218.4 945.4 233.6 936 242.9ZM1048 209 1096 257C1105.4 266.4 1105.4 281.6 1096 290.9L1048 338.9C1038.6 348.3 1023.4 348.3 1014.1 338.9 1004.8 329.5 1004.7 314.3 1014.1 305L1045.1 274 1014.1 243C1004.7 233.6 1004.7 218.4 1014.1 209.1 1023.5 199.8 1038.7 199.7 1048 209.1Z" fill="#EBB211"/></g></svg>